<?xml version="1.0" encoding="iso-8859-1"?>
<!-- Generator: Adobe Illustrator 19.0.0, SVG Export Plug-In . SVG Version: 6.00 Build 0)  -->
<svg version="1.1" id="Layer_1" xmlns="http://www.w3.org/2000/svg" xmlns:xlink="http://www.w3.org/1999/xlink" x="0px" y="0px"
	 viewBox="0 0 509.287 509.287" style="enable-background:new 0 0 509.287 509.287;" xml:space="preserve">
<circle style="fill:#73D658;" cx="254.644" cy="254.644" r="254.644"/>
<g>
	<path style="fill:#F0582F;" d="M419.772,75.952H89.515c-15.258,0-27.804-12.546-27.804-27.804l0,0
		c0-15.258,12.546-27.804,27.804-27.804h330.257c15.258,0,27.804,12.546,27.804,27.804l0,0
		C447.576,63.407,435.03,75.952,419.772,75.952z"/>
	<path style="fill:#F0582F;" d="M419.772,489.282H89.515c-15.258,0-27.804-12.546-27.804-27.804l0,0
		c0-15.258,12.546-27.804,27.804-27.804h330.257c15.258,0,27.804,12.546,27.804,27.804l0,0
		C447.576,476.736,435.03,489.282,419.772,489.282z"/>
</g>
<path style="fill:#FFFFFC;" d="M209.547,268.546c-52.895,18.649-90.872,68.832-90.872,128.17v36.281h271.936v-36.281
	c0-59.338-37.976-109.521-90.871-128.17c-5.764-2.034-9.833-7.799-9.833-13.902c0-6.103,3.73-11.868,9.833-13.902
	c52.895-18.649,90.872-68.832,90.872-128.17v-36.62H118.675v36.281c0,59.338,37.976,109.521,90.872,128.17
	c5.764,2.034,9.833,7.799,9.833,13.902C219.38,260.747,215.311,266.511,209.547,268.546z"/>
<path style="fill:#0090FF;" d="M222.771,202.766c14.241,5.086,25.77,15.936,31.873,29.16c6.103-13.563,17.293-24.074,31.873-29.16
	c19.327-6.781,35.603-19.666,46.792-35.942h-157.33C187.168,183.099,203.444,195.645,222.771,202.766z"/>
<g>
	<rect x="89.515" y="75.952" style="fill:#FBD303;" width="18.649" height="357.383"/>
	<rect x="398.411" y="75.952" style="fill:#FBD303;" width="18.649" height="357.383"/>
</g>
<path style="fill:#0090FF;" d="M260.069,290.585c0-1.356,0-2.374,0-3.73c-2.374-3.052-4.069-6.442-5.764-9.833
	c-1.695,3.391-3.391,6.781-5.764,9.833c0,1.017,0,2.374,0,3.73c0,52.217-39.332,95.279-89.854,101.383c0,0.339,0,0.678,0,1.017
	v40.35h191.237v-40.35c0-0.339,0-0.678,0-1.017C299.401,386.204,260.069,343.142,260.069,290.585z"/>
<g>
</g>
<g>
</g>
<g>
</g>
<g>
</g>
<g>
</g>
<g>
</g>
<g>
</g>
<g>
</g>
<g>
</g>
<g>
</g>
<g>
</g>
<g>
</g>
<g>
</g>
<g>
</g>
<g>
</g>
</svg>
